HIERARCHY
ROOT Hips
{
  OFFSET 0 0 0
  CHANNELS 6 Xposition Yposition Zposition Zrotation Yrotation Xrotation
  JOINT LeftThigh
  {
    OFFSET 8.409438 0 -5.917753
    CHANNELS 3 Zrotation Yrotation Xrotation
    JOINT LeftLeg
    {
      OFFSET 0 0 -42.358652
      CHANNELS 3 Zrotation Yrotation Xrotation
      JOINT LeftFoot
      {
        OFFSET 0 0 -39.357303
        CHANNELS 3 Zrotation Yrotation Xrotation
      }
    }
  }
  JOINT RightThigh
  {
    OFFSET -8.409438 0 -5.917753
    CHANNELS 3 Zrotation Yrotation Xrotation
    JOINT RightLeg
    {
      OFFSET 0 0 -42.358652
      CHANNELS 3 Zrotation Yrotation Xrotation
      JOINT RightFoot
      {
        OFFSET 0 0 -39.357303
        CHANNELS 3 Zrotation Yrotation Xrotation
      }
    }
  }
  JOINT SpineLow
  {
    OFFSET 0 0 4.719101
    CHANNELS 3 Zrotation Yrotation Xrotation
    JOINT SpineMid
    {
      OFFSET 0 0 12.899191
      CHANNELS 3 Zrotation Yrotation Xrotation
      JOINT Chest
      {
        OFFSET 0 0 12.899191
        CHANNELS 3 Zrotation Yrotation Xrotation
        JOINT LeftShoulder
        {
          OFFSET 7.550562 1.41573 9.438202
          CHANNELS 3 Zrotation Yrotation Xrotation
          JOINT LeftArm
          {
            OFFSET 9.155056 0 4.247191
            CHANNELS 3 Zrotation Yrotation Xrotation
            JOINT LeftForearm
            {
              OFFSET 0 0 25.771955
              CHANNELS 3 Zrotation Yrotation Xrotation
              JOINT LeftHand
              {
                OFFSET 0 0 25.197169
                CHANNELS 3 Zrotation Yrotation Xrotation
              }
            }
          }
        }
        JOINT RightShoulder
        {
          OFFSET -7.550562 1.41573 9.438202
          CHANNELS 3 Zrotation Yrotation Xrotation
          JOINT RightArm
          {
            OFFSET -9.155056 0 4.247191
            CHANNELS 3 Zrotation Yrotation Xrotation
            JOINT RightForearm
            {
              OFFSET 0 0 -25.771955
              CHANNELS 3 Zrotation Yrotation Xrotation
              JOINT RightHand
              {
                OFFSET 0 0 -25.197169
                CHANNELS 3 Zrotation Yrotation Xrotation
              }
            }
          }
        }
        JOINT Neck
        {
          OFFSET 0 0 15.101124
          CHANNELS 3 Zrotation Yrotation Xrotation
          JOINT Head
          {
            OFFSET 0 0 11.325843
            CHANNELS 3 Zrotation Yrotation Xrotation
            End Site
            {
              OFFSET 0 0 14.157303
            }
          }
        }
      }
    }
  }
}
MOTION
Frames: 14
Frame Time: 0.0
0.0  101.685394  0.0  -5.531305  -1.300807  -122.578658  23.435755  -25.372053  -1.150505  -13.517351  14.237511  36.843048  -5.963721  3.227276  -0.952239  15.231072  -19.194046  -72.092179  13.827213  20.447897  117.133795  -0.387221  5.917517  1.911916  -1.618387  -0.70499  4.908344  -4.546299  -1.58944  13.459188  -4.546299  -1.58944  13.459188  6.468761  27.80821  16.186036  125.329578  45.51603  175.162938  -16.646324  -1.123142  113.74906  86.038687  14.394905  -26.571994  12.59419  -3.259055  18.039169  28.492209  74.720113  -28.785291  -0.013241  -28.606002  -99.580874  63.570654  2.0275  22.191424  -2.973966  1.410338  3.109645  -2.237608  1.042684  2.339046  
0.0  101.685394  0.0  -6.113294  -1.465216  -124.223118  23.854707  -26.6909  -0.257044  -15.043329  14.771645  37.026392  -5.59866  3.289917  -0.997045  15.464518  -20.216496  -74.843905  18.06996  25.620129  112.90344  4.67918  1.350107  2.37688  -1.74899  -0.808143  4.968912  -4.924303  -1.838689  13.635621  -4.924303  -1.838689  13.63562  7.021539  28.761969  18.066869  125.038699  46.729351  174.905325  -16.464608  -0.589245  114.256655  86.502951  14.101995  -26.747781  12.291972  -3.076163  19.622792  28.385788  74.679526  -29.042023  1.254669  -29.577967  -101.000051  63.112917  2.72336  21.919685  -2.977405  1.804155  3.959002  -2.244672  1.333935  2.977882  
0.0  101.685394  0.0  -6.479194  -1.877686  -125.592267  23.888341  -27.618512  0.709066  -15.770578  14.883803  37.223049  -5.273408  3.448823  -0.915064  15.896144  -20.222564  -77.120755  19.736887  29.943038  106.594032  8.251754  -3.409004  3.578607  -1.785713  -0.913287  4.945431  -5.045523  -2.118735  13.581189  -5.045523  -2.118735  13.581189  7.398424  29.641548  19.982746  125.009777  47.562259  174.666641  -16.175713  -0.552627  114.83908  86.933754  14.090066  -26.676838  11.652998  -2.934659  21.523907  28.476202  74.775985  -29.058748  2.816189  -30.842528  -102.825792  62.733095  3.299241  21.901316  -3.160173  2.199808  4.991944  -2.388003  1.624226  3.754995  
0.0  101.685394  0.0  -6.575246  -2.490616  -126.623258  23.860762  -28.174641  1.644171  -15.870356  14.595294  37.450911  -5.313914  3.593198  -0.879415  16.477813  -20.074704  -78.924939  18.412721  32.008425  97.642813  8.63617  -7.549936  5.273292  -1.712422  -0.992112  4.96265  -4.863076  -2.34676  13.632734  -4.863076  -2.34676  13.632733  7.177355  30.436858  21.38088  124.92355  48.516526  174.544249  -16.086617  -0.873475  115.261822  87.29235  14.266829  -26.327546  10.670815  -2.884513  22.781908  29.155712  74.888627  -28.467745  4.275772  -32.183506  -104.654797  62.415823  3.871082  21.884526  -3.517876  2.443469  5.70796  -2.661115  1.800007  4.294559  
0.0  101.685394  0.0  -6.427215  -3.227006  -127.308545  23.519755  -28.297214  2.409041  -15.159998  14.015177  37.982143  -5.497254  3.77707  -0.879946  17.034336  -20.198317  -79.719532  15.149934  31.777956  86.670495  6.610235  -10.70163  6.529783  -1.585009  -1.039294  5.053635  -4.529353  -2.494879  13.881104  -4.529353  -2.494879  13.881103  6.407845  31.163774  21.667405  124.987254  49.304603  174.505022  -16.040555  -1.360469  115.621762  87.549638  14.504305  -25.750382  9.602626  -2.906629  23.326255  29.766127  74.975151  -28.058103  5.837855  -33.406111  -106.399521  62.230442  4.590592  22.188663  -3.910324  2.555309  5.965422  -2.957547  1.878622  4.489898  
0.0  101.685394  0.0  -6.099706  -3.982014  -127.675925  23.003372  -28.006313  2.836517  -14.018435  13.411212  38.748234  -5.844542  3.928875  -0.914888  17.220279  -21.234854  -79.367135  12.617443  29.988977  74.505341  3.627859  -13.456696  7.238968  -1.48379  -1.047336  5.196148  -4.260631  -2.528506  14.267811  -4.260632  -2.528506  14.267812  5.610415  31.809198  21.304957  125.293457  50.024832  174.77927  -16.03366  -1.802328  115.938143  87.773924  14.680477  -25.05218  8.759788  -2.937729  23.37528  29.8347  74.956991  -28.404983  7.126708  -34.203328  -107.575457  61.928482  5.576852  22.828326  -4.168442  2.589298  5.844344  -3.150916  1.902429  4.400423  
0.0  101.685394  0.0  -5.729865  -4.634294  -127.780019  22.419535  -27.569645  2.851931  -12.773253  13.042968  39.662842  -5.918553  4.058684  -0.890645  17.236677  -23.648988  -77.712164  12.111902  27.294857  61.101798  -0.494252  -15.844004  7.589629  -1.464914  -1.008623  5.323933  -4.205047  -2.418993  14.613539  -4.205047  -2.418993  14.613539  5.309557  32.309672  20.9718  125.844799  50.676379  175.44003  -16.393103  -2.005441  116.045404  88.059294  14.543877  -24.060908  8.342735  -3.01247  23.345009  29.543202  74.780158  -29.258305  7.975012  -34.418549  -108.08278  61.320246  6.616829  24.212823  -4.196216  2.570977  5.599861  -3.17052  1.890084  4.217087  
0.0  101.685394  0.0  -5.469952  -5.07206  -127.685797  21.478709  -26.893743  2.589494  -11.647974  12.983396  40.526173  -5.54937  4.081264  -0.797813  17.138018  -26.247404  -74.719218  12.98688  24.852169  46.279816  -5.035511  -18.117276  7.951765  -1.540574  -0.93589  5.410779  -4.397052  -2.198757  14.847708  -4.397052  -2.198757  14.847708  5.616112  32.564595  21.026667  126.665524  51.247781  176.580637  -16.32636  -2.141926  116.266041  88.431412  14.359598  -23.759054  8.291448  -3.074212  23.519871  29.019708  74.520419  -30.402238  8.465116  -34.315289  -108.241411  60.165663  7.759941  25.56744  -4.019635  2.51121  5.348253  -3.036506  1.848499  4.027278  
0.0  101.685394  0.0  -5.424689  -5.056702  -127.333589  20.211885  -26.083422  2.091377  -10.551814  13.058273  41.31678  -4.753101  4.066666  -0.630261  16.473378  -27.310988  -70.745977  12.963115  22.402003  29.760474  -9.152117  -19.357045  8.985343  -1.743347  -0.850718  5.449725  -4.929866  -1.918979  14.952679  -4.929866  -1.918979  14.952679  6.375452  32.640289  21.310831  127.759873  51.588164  178.162428  -16.583175  -2.112767  116.255173  88.921213  13.801769  -23.458166  8.626294  -3.044738  23.769822  28.69352  74.165085  -31.244698  8.862204  -34.149894  -108.215904  59.177029  8.979497  26.831097  -3.664003  2.454265  5.067555  -2.768169  1.810546  3.814967  
0.0  101.685394  0.0  -5.537881  -4.482884  -126.815722  18.788328  -25.117444  1.566665  -9.687682  13.136603  41.823548  -4.221266  4.01825  -0.566414  15.729063  -21.636254  -67.545139  8.436562  16.226226  16.13825  -14.257352  -17.98816  8.143129  -2.047652  -0.779623  5.408361  -5.739846  -1.660847  14.840001  -5.739846  -1.660847  14.840001  7.30626  32.754467  21.800001  128.911232  51.50444  179.821501  -16.438959  -2.007875  116.428425  89.577803  13.264129  -23.850893  9.042523  -2.848248  24.15575  29.254791  73.593595  -30.968812  9.227271  -34.052999  -108.222176  58.630281  10.008445  27.569071  -3.300342  2.487898  4.923093  -2.495112  1.839548  3.705309  
0.0  101.685394  0.0  -5.623406  -3.546827  -126.071741  17.692841  -24.039134  0.928509  -8.917481  13.071199  42.130694  -4.104998  3.993671  -0.580377  16.445251  -12.390605  -65.560579  5.277472  10.789552  5.910649  -22.300834  -18.089794  7.154108  -2.360848  -0.713449  5.279036  -6.574062  -1.423989  14.485675  -6.574062  -1.423989  14.485676  8.020457  32.86841  22.40455  130.056183  51.093161  -178.583167  -16.276291  -1.730196  116.602832  90.314998  12.3042  -23.856666  9.194296  -2.60886  24.491207  30.909579  72.691574  -29.415318  9.559386  -33.843357  -108.325711  58.214573  10.845233  27.574238  -2.933093  2.56708  5.075857  -2.220967  1.901161  3.818685  
0.0  101.685394  0.0  -5.67146  -2.583172  -125.550367  17.366125  -23.367782  0.710371  -8.463933  12.914613  42.087877  -4.585269  4.084489  -0.75131  17.309058  -4.570141  -63.673574  1.305027  8.692094  -4.535149  -33.40676  -16.081079  12.180741  -2.610461  -0.652429  5.140533  -7.237478  -1.218992  14.104243  -7.237478  -1.218992  14.104242  8.432289  32.822424  22.996966  130.776261  50.384203  -177.349506  -16.271789  -1.24635  116.774588  91.109558  11.285081  -24.238626  9.068633  -2.531152  24.665287  33.128961  71.364062  -27.010678  10.284745  -33.565991  -108.568956  58.171374  11.485171  27.494728  -3.020318  2.595444  5.413673  -2.288068  1.920067  4.07251  
0.0  101.685394  0.0  -6.012359  -2.051343  -125.146172  18.282978  -23.881692  0.745082  -8.521532  12.851067  41.603224  -5.912727  4.361348  -1.185934  23.671978  -3.089258  -62.775191  -10.337981  11.6316  -12.167877  -32.689865  -12.808337  15.006512  -2.729548  -0.681242  5.02322  -7.566004  -1.285367  13.788881  -7.566004  -1.285367  13.788881  8.423264  32.752482  23.469951  131.100457  49.619747  -176.501154  -16.346515  -0.643393  116.989277  91.72986  10.190006  -24.34492  8.316276  -2.374927  24.433865  35.860072  69.41506  -24.09295  11.13324  -32.978437  -108.71297  57.948524  12.218973  27.188474  -3.417111  2.628685  5.854664  -2.587862  1.939067  4.405095  
0.0  101.685394  0.0  -6.011282  -3.016845  -125.176369  20.465382  -25.817725  0.789254  -8.497509  13.47464  41.481298  -7.657052  4.735497  -1.80794  26.768133  3.685584  -66.414724  -24.399091  11.211239  -10.449072  -28.708837  -10.639838  17.585331  -2.515935  -0.740026  4.987437  -6.996802  -1.49339  13.694882  -6.996802  -1.49339  13.694881  8.23254  32.278315  24.031667  130.92102  48.901792  -175.770846  -16.487441  -0.103883  117.244597  92.174441  9.272619  -24.136634  6.945548  -2.249545  23.712332  38.757293  66.774287  -20.963267  12.198483  -32.107067  -108.950652  57.809289  13.087162  27.117108  -4.014293  2.643184  6.203869  -3.037404  1.941981  4.669685  
